<?xml version="1.0" encoding="UTF-8"?>
<svg version="1.1" xmlns="http://www.w3.org/2000/svg" width="400" height="423">
<path d="M0 0 C3.24099957 2.89242525 5.10853256 5.72647052 6 10 C5.12601562 10.14695312 5.12601562 10.14695312 4.234375 10.296875 C-2.7534858 11.57139049 -9.30703063 13.64676419 -16 16 C-16.99 16.33 -17.98 16.66 -19 17 C-19.26224541 22.34773264 -18.42139513 26.66142565 -16.62890625 31.6484375 C-16.26622902 32.6954332 -16.26622902 32.6954332 -15.89622498 33.76358032 C-15.38758762 35.22581924 -14.87384408 36.68629116 -14.35522461 38.14501953 C-13.5585966 40.3859805 -12.77703494 42.63175941 -11.99804688 44.87890625 C-11.50085536 46.30238238 -11.0028381 47.72557043 -10.50390625 49.1484375 C-10.26845596 49.82127777 -10.03300568 50.49411804 -9.79042053 51.18734741 C-8.82498969 54.34059892 -8.82498969 54.34059892 -7 57 C-3.1638778 57.14475933 0.32307787 57.17661508 4 56 C5.13054244 60.30343043 4.9099817 64.23191973 4.49023438 68.60742188 C4.39006846 69.74199105 4.39006846 69.74199105 4.28787899 70.89948082 C4.06332057 73.42323428 3.82853015 75.94592851 3.59375 78.46875 C3.43135134 80.27046222 3.26958726 82.07223173 3.1084137 83.87405396 C2.67141985 88.73921009 2.22559452 93.60352045 1.77809525 98.46772003 C1.31377056 103.53059853 0.85735976 108.59419009 0.40014648 113.65771484 C-0.35269791 121.98412843 -1.11040606 130.3100863 -1.87158203 138.63574219 C-2.86011457 149.44984231 -3.83798156 160.26488019 -4.81179428 171.08031464 C-5.44346396 178.09318859 -6.07710698 185.10588461 -6.71096802 192.11856079 C-6.8620477 193.79016603 -7.01306898 195.46177655 -7.16403198 197.13339233 C-7.59264123 201.87848852 -8.02264047 206.6234545 -8.45488167 211.36822128 C-8.58421238 212.79004584 -8.71308875 214.21191182 -8.84145927 215.63382339 C-9.45612068 222.43868773 -10.09057443 229.22763647 -11 236 C-11.99 236 -12.98 236 -14 236 C-14.23783203 234.60201172 -14.23783203 234.60201172 -14.48046875 233.17578125 C-17.59973745 216.13182132 -22.98102812 201.93594857 -37 191 C-60.00353437 175.75191289 -88.02682515 171.11603541 -115 176 C-126.31276879 178.3180598 -138.70833213 181.51030497 -147.57421875 189.24609375 C-150 191 -150 191 -152.00390625 190.953125 C-154.49489132 189.76369182 -156.66647808 188.32093245 -158.9375 186.75 C-172.36933288 178.07971634 -188.17697804 174.83146453 -204 174 C-204.93328125 173.94714844 -205.8665625 173.89429688 -206.828125 173.83984375 C-223.21319362 173.36640584 -237.95134793 177.14878542 -253.02978516 183.22705078 C-255.65321008 184.25626557 -258.31622479 185.14238662 -261 186 C-261 186.66 -261 187.32 -261 188 C-261.94359375 188.4021875 -261.94359375 188.4021875 -262.90625 188.8125 C-275.83413917 194.73129263 -281.99033587 204.20073148 -287.1875 217.125 C-291.85533047 231.16115929 -292.46071212 245.38086696 -292.51171875 260.03515625 C-292.52861524 261.8941716 -292.54677189 263.75317587 -292.56611633 265.61216736 C-292.61308395 270.44357842 -292.64323439 275.27494461 -292.66955566 280.10650635 C-292.69963387 285.06132882 -292.74606849 290.01599718 -292.79101562 294.97070312 C-292.87644083 304.6470539 -292.94405223 314.32343694 -293 324 C-293.99 323.67 -294.98 323.34 -296 323 C-297.2109375 320.24365234 -297.2109375 320.24365234 -298.375 316.5859375 C-298.69090088 315.61414047 -298.69090088 315.61414047 -299.01318359 314.62271118 C-299.68685557 312.54361039 -300.34403752 310.4597488 -301 308.375 C-301.65891457 306.31275198 -302.32127343 304.25167706 -302.98681641 302.19155884 C-303.59394392 300.30732094 -304.19175719 298.42008938 -304.7890625 296.53271484 C-306.02348503 292.9314862 -307.49700142 289.49631804 -309 286 C-309.82183585 283.6566213 -310.61510033 281.30307005 -311.3828125 278.94140625 C-311.8273596 277.58489677 -312.27211063 276.22845412 -312.71704102 274.87207031 C-313.06111496 273.81808044 -313.06111496 273.81808044 -313.41213989 272.74279785 C-317.24199804 261.02909497 -321.24464909 249.4191513 -325.65039062 237.9074707 C-329.55264464 227.66405392 -333.08571087 217.29907782 -336.625 206.92578125 C-338.1157918 202.55773717 -339.6315058 198.20071079 -341.1875 193.85546875 C-341.51733887 192.9315332 -341.84717773 192.00759766 -342.18701172 191.05566406 C-342.79293352 189.36438206 -343.40360609 187.67479114 -344.02001953 185.98730469 C-345.29068447 182.42882265 -346 179.82281106 -346 176 C-343.72930578 175.18710947 -341.45845099 174.37467262 -339.1875 173.5625 C-338.22360352 173.21735352 -338.22360352 173.21735352 -337.24023438 172.86523438 C-334.50071717 171.88582149 -331.76013914 170.92004638 -329 170 C-329.42939405 167.83171232 -329.86894953 165.66543614 -330.3125 163.5 C-330.55613281 162.2934375 -330.79976563 161.086875 -331.05078125 159.84375 C-331.89180511 156.43812254 -332.92411134 153.33466296 -334.19506836 150.07958984 C-335.03386407 147.91251012 -335.80854553 145.73043231 -336.5703125 143.53515625 C-336.95509766 142.43010742 -336.95509766 142.43010742 -337.34765625 141.30273438 C-337.87519367 139.78241923 -338.40118395 138.26156653 -338.92578125 136.74023438 C-339.96980731 133.0901148 -339.96980731 133.0901148 -342 130 C-347.78883995 130.51686071 -353.352323 131.65344738 -359 133 C-359.46270513 125.44248293 -357.08757014 119.67378143 -352.56007385 113.73109436 C-347.73832461 108.38076885 -340.72996565 105.89409918 -334.06640625 103.66015625 C-333.23020248 103.3707164 -332.39399872 103.08127655 -331.53245544 102.7830658 C-328.87891643 101.86684089 -326.22096232 100.96432681 -323.5625 100.0625 C-321.8154353 99.46251928 -320.06868779 98.86161409 -318.32226562 98.25976562 C-314.87029673 97.0710619 -311.41685963 95.88677333 -307.96240234 94.70532227 C-301.29300524 92.41947209 -294.64726444 90.06764989 -288.00289917 87.7102356 C-284.7374476 86.55229416 -281.47021376 85.39940598 -278.203125 84.24609375 C-276.90079408 83.78614257 -275.59846664 83.32618153 -274.29614258 82.86621094 C-260.47169314 77.98438017 -246.64404007 73.11170562 -232.8125 68.25 C-232.02663513 67.97367737 -231.24077026 67.69735474 -230.43109131 67.41265869 C-222.16690013 64.50725729 -213.89893509 61.61430823 -205.61743164 58.75854492 C-196.48789925 55.60916915 -187.42165746 52.31792361 -178.375 48.9375 C-169.64704109 45.67686167 -160.89459907 42.57208933 -152.04003906 39.67456055 C-144.85969181 37.31446727 -137.73931178 34.8017653 -130.625 32.25 C-129.45582031 31.83065186 -128.28664062 31.41130371 -127.08203125 30.97924805 C-124.64977687 30.10614374 -122.21765057 29.23268256 -119.78564453 28.35888672 C-113.21513652 25.9992294 -106.64017732 23.65209317 -100.0625 21.3125 C-99.07564209 20.96140167 -99.07564209 20.96140167 -98.06884766 20.60321045 C-89.29909222 17.48657179 -80.50313139 14.46777501 -71.65991211 11.56616211 C-64.76981237 9.29168759 -57.94598923 6.84825558 -51.125 4.375 C-13.94430277 -9.10151699 -13.94430277 -9.10151699 0 0 Z M-96.8125 42.625 C-97.57498047 42.86089844 -98.33746094 43.09679688 -99.12304688 43.33984375 C-99.85201172 43.59121094 -100.58097656 43.84257813 -101.33203125 44.1015625 C-101.98921143 44.32150879 -102.6463916 44.54145508 -103.32348633 44.76806641 C-106.0100392 46.74219569 -106.34744808 48.79891015 -107 52 C-106.51830291 55.10038531 -106.51830291 55.10038531 -105.33203125 58.2109375 C-104.93306641 59.37367187 -104.53410156 60.53640625 -104.12304688 61.734375 C-103.69056641 62.93578125 -103.25808594 64.1371875 -102.8125 65.375 C-102.39935547 66.56867188 -101.98621094 67.76234375 -101.56054688 68.9921875 C-99.46078325 75.02775609 -97.27459296 81.02826735 -95 87 C-88.93593176 88.37965574 -84.9981869 87.43691928 -79.25 85.25 C-78.11884766 84.85167969 -78.11884766 84.85167969 -76.96484375 84.4453125 C-71.89629167 82.61983958 -71.89629167 82.61983958 -68 79 C-68.00873644 71.71380816 -70.84488802 64.91717145 -73.23803711 58.11621094 C-73.94199329 56.11220864 -74.63093721 54.10347624 -75.31835938 52.09375 C-77.26676836 45.52956586 -77.26676836 45.52956586 -81 40 C-86.77874147 39.45663676 -91.43831405 40.75125954 -96.8125 42.625 Z M-180.875 71.75 C-181.69097656 72.00265625 -182.50695312 72.2553125 -183.34765625 72.515625 C-189.69032162 74.3932632 -189.69032162 74.3932632 -194 79 C-193.68583706 85.90047789 -190.93627633 92.67932852 -188.625 99.125 C-188.33367187 99.96675781 -188.04234375 100.80851562 -187.7421875 101.67578125 C-184.93708835 110.45866602 -184.93708835 110.45866602 -180 118 C-174.0250868 117.58360671 -169.03742648 116.14734335 -163.5 113.9375 C-162.40945312 113.51500977 -162.40945312 113.51500977 -161.296875 113.08398438 C-159.52808745 112.39741552 -157.76356959 111.69986318 -156 111 C-154.85148969 105.53056709 -155.32269176 101.59966239 -157.16796875 96.421875 C-157.4040535 95.72862122 -157.64013824 95.03536743 -157.88337708 94.32110596 C-158.38301634 92.86645038 -158.89019958 91.41436613 -159.40454102 89.96484375 C-160.18783957 87.74903943 -160.94001768 85.52432962 -161.68945312 83.296875 C-162.18047144 81.87957641 -162.67325012 80.46288621 -163.16796875 79.046875 C-163.39107224 78.3843573 -163.61417572 77.7218396 -163.84403992 77.03924561 C-165.21074336 73.25526851 -166.41293027 70.95110698 -170 69 C-173.75777867 69 -177.32859296 70.59561398 -180.875 71.75 Z M-264.00390625 100.2421875 C-264.74447266 100.50386719 -265.48503906 100.76554687 -266.24804688 101.03515625 C-267.39370117 101.45087891 -267.39370117 101.45087891 -268.5625 101.875 C-269.33013672 102.14441406 -270.09777344 102.41382812 -270.88867188 102.69140625 C-274.27719316 103.90264751 -276.97705847 104.98470565 -280 107 C-281.12010341 114.3478784 -278.33524991 120.9371719 -275.89233398 127.77392578 C-275.18589694 129.75449435 -274.5008459 131.74153601 -273.81835938 133.73046875 C-271.29378611 141.3224595 -271.29378611 141.3224595 -267 148 C-261.08918846 147.46144462 -256.08292405 146.20790245 -250.5625 144.0625 C-249.84384766 143.79759766 -249.12519531 143.53269531 -248.38476562 143.25976562 C-244.47875645 142.00737197 -244.47875645 142.00737197 -242 139 C-242.35937186 130.95174174 -244.75082551 123.78235253 -247.3125 116.1875 C-247.70373047 114.97384766 -248.09496094 113.76019531 -248.49804688 112.50976562 C-248.88669922 111.34509766 -249.27535156 110.18042969 -249.67578125 108.98046875 C-250.02552002 107.92754639 -250.37525879 106.87462402 -250.7355957 105.78979492 C-252.11288868 102.75092122 -253.36324502 101.03728395 -256 99 C-259.38443267 99 -260.97179237 99.16570167 -264.00390625 100.2421875 Z " fill="#FFFFFF" transform="translate(364,14)"/>
<path d="M0 0 C6.99393111 4.99382166 10.58816977 10.26017636 12.6171875 18.57421875 C13.12858858 22.77919641 13.22489679 26.96629297 13.3046875 31.19921875 C13.33739746 32.47506836 13.37010742 33.75091797 13.40380859 35.06542969 C13.74033977 49.64759413 13.72017397 64.23902156 13.7421875 78.82421875 C13.74495697 80.07277649 13.74772644 81.32133423 13.75057983 82.60772705 C13.75636908 86.1851301 13.75459134 89.76244055 13.75 93.33984375 C13.75196884 94.42915192 13.75393768 95.51846008 13.75596619 96.64077759 C13.75132103 98.1435878 13.75132103 98.1435878 13.74658203 99.67675781 C13.74578644 100.55366272 13.74499084 101.43056763 13.74417114 102.33404541 C13.6171875 104.57421875 13.6171875 104.57421875 12.6171875 107.57421875 C8.9871875 107.90421875 5.3571875 108.23421875 1.6171875 108.57421875 C2.7309375 109.02796875 3.8446875 109.48171875 4.9921875 109.94921875 C13.59511121 114.30416237 20.24206553 121.72760275 23.77734375 130.66015625 C26.76407439 141.023417 26.22919803 151.38384995 21.359375 161.078125 C15.86273856 169.95384121 7.80932965 176.8674924 -2.3828125 179.57421875 C-13.41467533 181.00117462 -23.88426155 180.4384036 -32.9921875 173.62109375 C-40.18505558 167.53482076 -45.90998129 160.7941867 -48.3828125 151.57421875 C-49.36261841 139.29483293 -48.46050689 129.46883339 -40.41796875 119.71875 C-35.98550855 115.04807697 -31.13027161 111.4479483 -25.3828125 108.57421875 C-38.2528125 108.07921875 -38.2528125 108.07921875 -51.3828125 107.57421875 C-51.8778125 109.55421875 -51.8778125 109.55421875 -52.3828125 111.57421875 C-58.05295521 118.69704264 -65.45399209 123.72476486 -74.3828125 125.57421875 C-78.58031269 126.02157138 -82.78761996 126.19846371 -87.00390625 126.36328125 C-90.25008825 126.34509991 -90.25008825 126.34509991 -92.3828125 127.57421875 C-92.0528125 129.22421875 -91.7228125 130.87421875 -91.3828125 132.57421875 C-90.7530249 132.58880127 -90.1232373 132.60338379 -89.47436523 132.6184082 C-86.58909929 132.69340869 -83.70492527 132.78989514 -80.8203125 132.88671875 C-79.3343457 132.92055664 -79.3343457 132.92055664 -77.81835938 132.95507812 C-69.4384984 133.26131889 -63.29045058 134.96590649 -56.9609375 140.7109375 C-53.17823291 145.17715059 -51.22039131 150.87671737 -50.9453125 156.69921875 C-51.77586446 164.0555361 -54.07154371 169.26294996 -59.3828125 174.57421875 C-63.94187831 177.71736324 -68.18969707 179.70371192 -73.76245117 179.68774414 C-74.64313766 179.68766861 -75.52382416 179.68759308 -76.43119812 179.68751526 C-77.37816055 179.68235397 -78.32512299 179.67719269 -79.30078125 179.671875 C-80.27316238 179.67046005 -81.24554352 179.6690451 -82.24739075 179.66758728 C-85.35506254 179.66198692 -88.46266246 179.64943437 -91.5703125 179.63671875 C-93.67643125 179.6317038 -95.78255113 179.62714088 -97.88867188 179.62304688 C-103.05341314 179.61201737 -108.21810063 179.5947525 -113.3828125 179.57421875 C-113.3828125 175.57421875 -113.3828125 175.57421875 -111.4453125 173.26171875 C-110.43945573 172.34910151 -109.41622232 171.4555145 -108.3828125 170.57421875 C-107.72796875 169.99027344 -107.073125 169.40632812 -106.3984375 168.8046875 C-95.87462963 159.94155144 -85.50793692 160.16310696 -72.3828125 160.57421875 C-72.34026894 158.57467129 -72.34200467 156.57380239 -72.3828125 154.57421875 C-73.98607132 152.97095993 -75.72387979 153.42755759 -77.94140625 153.3984375 C-78.88564453 153.37458984 -79.82988281 153.35074219 -80.80273438 153.32617188 C-82.77909312 153.28395839 -84.75571238 153.25230829 -86.73242188 153.23242188 C-94.37959399 153.01068998 -101.86484539 151.92495855 -107.6015625 146.4609375 C-112.24841064 138.48479267 -114.59469849 131.783182 -112.3828125 122.57421875 C-109.86732902 116.67692345 -105.6451086 112.17801868 -100.3828125 108.57421875 C-97.67332275 107.6710555 -95.98145916 107.42764375 -93.18676758 107.36889648 C-91.92580009 107.33897865 -91.92580009 107.33897865 -90.63935852 107.30845642 C-89.73614365 107.29174393 -88.83292877 107.27503143 -87.90234375 107.2578125 C-86.97435471 107.2370314 -86.04636566 107.21625031 -85.09025574 107.19483948 C-82.1253501 107.12944552 -79.16035578 107.07050613 -76.1953125 107.01171875 C-74.1855377 106.96852388 -72.17577187 106.92490928 -70.16601562 106.88085938 C-65.23837218 106.77377448 -60.31063951 106.6724783 -55.3828125 106.57421875 C-55.38725372 105.58387131 -55.39169495 104.59352386 -55.39627075 103.57316589 C-55.43695949 94.20242306 -55.46686504 84.83169835 -55.48643684 75.46088696 C-55.49683741 70.64421572 -55.51092792 65.82761627 -55.53369141 61.01098633 C-55.55555347 56.35552078 -55.5674091 51.70012393 -55.57256699 47.04461098 C-55.57623889 45.27576937 -55.58340865 43.50693118 -55.59427261 41.73811913 C-55.75991056 13.63096219 -55.75991056 13.63096219 -47.66015625 4.66796875 C-34.65189189 -7.53859343 -15.32497803 -9.1698639 0 0 Z M-25.1328125 132.19921875 C-27.99063861 135.95707451 -29.21311897 139.86907991 -29.3828125 144.57421875 C-28.84734617 147.81732617 -28.09016347 150.75052291 -26.3828125 153.57421875 C-24.35646114 154.84904936 -24.35646114 154.84904936 -22.3828125 155.57421875 C-22.3828125 156.23421875 -22.3828125 156.89421875 -22.3828125 157.57421875 C-17.19095762 159.76026291 -13.10052042 161.39103417 -7.3828125 160.57421875 C-1.91746705 158.16576143 1.99337957 155.03173924 4.6171875 149.57421875 C6.21892139 143.48985459 5.82197617 139.12918578 2.6171875 133.57421875 C-0.69874037 129.74814813 -3.6226242 126.92493575 -8.75 126.2734375 C-15.78272821 126.24057428 -19.89872885 127.203048 -25.1328125 132.19921875 Z " fill="#FFFFFF" transform="translate(174.3828125,231.42578125)"/>
<path d="M0 0 C6.1102078 4.63828099 9.6273791 9.88209404 11.25 17.375 C11.33982472 20.25809893 11.37619817 23.11628662 11.36352539 25.99902344 C11.36367142 26.86767532 11.36381744 27.73632721 11.3639679 28.63130188 C11.36327191 31.49901843 11.35549415 34.36666981 11.34765625 37.234375 C11.34579096 39.2240597 11.34436758 41.21374485 11.34336853 43.20343018 C11.33955212 48.43785879 11.32972929 53.67225961 11.31866455 58.90667725 C11.30663217 65.18841477 11.30204402 71.47016159 11.29621124 77.75190735 C11.28651709 87.29295755 11.26735438 96.8339468 11.25 106.375 C-13.995 106.87 -13.995 106.87 -39.75 107.375 C-36.12 109.685 -32.49 111.995 -28.75 114.375 C-20.98956205 122.99770883 -17.16289518 130.91719225 -17.10546875 142.5546875 C-17.08656082 143.48926788 -17.06765289 144.42384827 -17.048172 145.38674927 C-17.01191849 147.34460256 -16.9846622 149.30264159 -16.96606445 151.26074219 C-16.93737589 154.26298849 -16.88223249 157.26385505 -16.82226562 160.265625 C-16.79014739 162.17445421 -16.75949589 164.08330878 -16.73046875 165.9921875 C-16.7159819 166.88904266 -16.70149506 167.78589783 -16.68656921 168.70993042 C-16.6793837 169.54154694 -16.67219818 170.37316345 -16.66479492 171.22998047 C-16.65291389 172.32510452 -16.65291389 172.32510452 -16.64079285 173.44235229 C-16.75 175.375 -16.75 175.375 -17.75 178.375 C-24.02 178.375 -30.29 178.375 -36.75 178.375 C-36.80607422 174.52521484 -36.80607422 174.52521484 -36.86328125 170.59765625 C-36.90961988 168.08544865 -36.96080838 165.57338281 -37.01245117 163.0612793 C-37.04550799 161.32829554 -37.07359853 159.5952091 -37.09643555 157.86206055 C-37.13033892 155.3568179 -37.18266728 152.8525002 -37.23828125 150.34765625 C-37.24467117 149.58477798 -37.2510611 148.82189972 -37.25764465 148.03590393 C-37.41599978 142.11513022 -38.14956439 135.37386437 -42.16596985 130.74208069 C-46.70545749 126.82432326 -50.61544006 126.01296985 -56.40234375 126.09765625 C-61.48125991 126.69766132 -64.6674376 129.20697215 -68.125 132.9375 C-72.20670945 141.57188537 -70.84792883 152.53258931 -70.75 161.875 C-70.72454458 164.36454036 -70.70349327 166.85413087 -70.6875 169.34375 C-70.67589844 170.43107422 -70.66429687 171.51839844 -70.65234375 172.63867188 C-70.75 175.375 -70.75 175.375 -71.75 178.375 C-78.02 178.375 -84.29 178.375 -90.75 178.375 C-90.84224209 172.14865875 -90.92175675 165.92472438 -90.96972656 159.69824219 C-90.98974016 157.58390228 -91.01695972 155.46961701 -91.05175781 153.35546875 C-91.10072941 150.30194552 -91.12307182 147.24915922 -91.140625 144.1953125 C-91.16127014 143.26260529 -91.18191528 142.32989807 -91.20318604 141.368927 C-91.20630317 132.08142953 -88.15729639 123.25441297 -81.75 116.375 C-79.20230955 114.17942937 -76.53385894 112.25769223 -73.75 110.375 C-72.986875 109.7975 -72.22375 109.22 -71.4375 108.625 C-68.5966985 107.30369698 -66.16225708 106.82942687 -63.08203125 106.296875 C-62.08534424 106.1225293 -61.08865723 105.94818359 -60.06176758 105.76855469 C-59.29888428 105.63868164 -58.53600098 105.50880859 -57.75 105.375 C-57.75444122 104.34262711 -57.75888245 103.31025421 -57.76345825 102.24659729 C-57.80409367 92.49261082 -57.8340272 82.73864165 -57.85362434 72.98458958 C-57.86403828 67.970566 -57.87815368 62.95661105 -57.90087891 57.94262695 C-57.9226927 53.09913907 -57.93458659 48.25571699 -57.93975449 43.41218376 C-57.94343496 41.56912132 -57.95062183 39.72606227 -57.96146011 37.88302803 C-57.97608864 35.29116301 -57.97797323 32.69956602 -57.97705078 30.10766602 C-57.98424133 29.35456146 -57.99143188 28.60145691 -57.99884033 27.82553101 C-57.96182884 18.14417799 -55.92316693 9.83836897 -49.1484375 2.68359375 C-35.42351501 -9.8192466 -15.07610917 -10.05073944 0 0 Z " fill="#FFFFFF" transform="translate(292.75,232.625)"/>
<path d="M0 0 C0.96808594 -0.01611328 1.93617188 -0.03222656 2.93359375 -0.04882812 C8.82576555 -0.05283641 12.89762798 0.58047116 18.125 3.3125 C19.8265625 4.0859375 19.8265625 4.0859375 21.5625 4.875 C28.99605268 9.26146577 34.83245085 18.07776887 37.125 26.3125 C38.78758247 36.98733506 38.78758247 36.98733506 37.125 40.3125 C22.42097903 40.44373182 7.80549912 40.16090862 -6.875 39.3125 C-6.875 38.6525 -6.875 37.9925 -6.875 37.3125 C0.385 35.0025 7.645 32.6925 15.125 30.3125 C13.13621046 25.34052615 12.32371138 24.17991265 8.125 21.3125 C2.67711412 19.49653804 -3.33886294 19.88381947 -8.875 21.3125 C-8.875 21.9725 -8.875 22.6325 -8.875 23.3125 C-9.65875 23.993125 -10.4425 24.67375 -11.25 25.375 C-14.62130814 29.14765435 -15.68178098 32.28040455 -15.875 37.3125 C-14.89337819 42.96947515 -12.25560273 46.60583615 -7.875 50.3125 C-5.2377982 51.6311009 -2.70737179 51.59167748 0.19458008 51.8046875 C8.43925414 52.46724292 15.97843717 53.19087251 22.125 59.3125 C24.91661528 63.42007123 27.125 67.28142002 27.125 72.3125 C22.16289993 72.41211748 17.2013946 72.4843178 12.23852539 72.53222656 C10.55385179 72.55221886 8.86924649 72.57942223 7.18481445 72.61425781 C-10.74997883 72.97561068 -10.74997883 72.97561068 -17.875 68.3125 C-19.16277344 67.53519531 -19.16277344 67.53519531 -20.4765625 66.7421875 C-27.75488249 61.14996481 -33.55379946 54.34665609 -35.875 45.3125 C-37.33081139 31.91282633 -35.49886071 21.53445212 -27.2421875 10.7109375 C-26.79101562 10.24945313 -26.33984375 9.78796875 -25.875 9.3125 C-25.215 9.3125 -24.555 9.3125 -23.875 9.3125 C-23.875 8.6525 -23.875 7.9925 -23.875 7.3125 C-22.30078125 6.09375 -22.30078125 6.09375 -20.1875 4.8125 C-19.50300781 4.3896875 -18.81851562 3.966875 -18.11328125 3.53125 C-11.95593141 0.1785569 -6.89024161 -0.02275509 0 0 Z " fill="#FFFFFF" transform="translate(314.875,338.6875)"/>
</svg>
